<svg xmlns="http://www.w3.org/2000/svg" viewBox="0 0 400 400" role="img" aria-labelledby="title desc">
  <title id="title">Open Researcher mark</title>
  <desc id="desc">Rounded teardrop ribbon mark for Open Researcher</desc>
  <defs>
    <linearGradient id="bg" x1="50%" x2="50%" y1="0%" y2="100%">
      <stop offset="0%" stop-color="#f6f4f3"/>
      <stop offset="100%" stop-color="#e8e6e4"/>
    </linearGradient>
  </defs>
  <rect width="400" height="400" rx="70" fill="url(#bg)"/>
  <path fill="#0f0f10" d="M200 60c-64.6 0-117 52.4-117 117 0 42.2 23.8 86.3 66.6 132l45 48.2c2.6 2.8 6.6 2.8 9.2 0l45-48.2C293.2 263.3 317 219.2 317 177c0-64.6-52.4-117-117-117zm0 62c32 0 58 26 58 58 0 21.9-12.8 45.7-39 73.8l-19 20.1-19-20.1C154.8 225.7 142 201.9 142 180c0-32 26-58 58-58z"/>
</svg>
