<svg xmlns="http://www.w3.org/2000/svg" viewBox="0 0 800 520" role="img" aria-labelledby="title desc">
  <title id="title">Open Researcher logo</title>
  <desc id="desc">Open Researcher logotype with ribbon mark and wordmark</desc>
  <defs>
    <linearGradient id="bg" x1="50%" x2="50%" y1="0%" y2="100%">
      <stop offset="0%" stop-color="#f6f4f3"/>
      <stop offset="100%" stop-color="#e8e6e4"/>
    </linearGradient>
  </defs>
  <rect width="800" height="520" rx="70" fill="url(#bg)"/>
  <g transform="translate(100 40)">
    <path fill="#0f0f10" d="M200 0C122.9 0 60 62.9 60 140c0 50.5 28.5 103.1 79.4 157.7L195 360c2.8 3 7.2 3 10 0l55.6-62.3C311.5 243.1 340 190.5 340 140 340 62.9 277.1 0 200 0zm0 76c35.9 0 65 29.1 65 65 0 24.6-14.6 51.4-44.4 81.6L200 244l-20.6-21.4C149.6 192.4 135 165.6 135 141c0-35.9 29.1-65 65-65z"/>
    <g transform="translate(260 345)" fill="#0f0f10">
      <path d="M30.5 0c-17.7 0-30.5 12.9-30.5 30.4C0 47.9 12.8 61 30.4 61c17.7 0 30.5-13 30.5-30.5C60.9 12.8 48.1 0 30.5 0zm0 9.5c11.8 0 20.6 9 20.6 21S42.3 51 30.4 51c-11.7 0-20.5-9.1-20.5-20.9C9.9 18.7 18.7 9.5 30.5 9.5zM93.6 10.3c6.7 0 11.6 2.7 15.7 8.7l7.7-5.5C112.2 5.7 103.6 0 93.2 0 74.9 0 62 12.6 62 30.7 62 48.6 75 61 92.7 61c10.5 0 18.9-5.1 23.9-14l-8-5.3c-4 6.3-8.4 9.1-15.4 9.1-11 0-19.2-8.9-19.2-20.5 0-12 8.1-20 19.6-20zM131 60h9.8V10.4H131zM146.2 60h9.8V27c0-6.5 4.6-10.7 11.3-10.7 5.6 0 9.3 3.3 9.3 9V60h9.9V24.7c0-11-6.9-18-17.6-18-6.5 0-11.6 2.7-15.4 8h-.2V10.4h-7.1zM218.7 0c-10.6 0-18.5 7-18.5 17.4 0 10.4 7.7 16.2 18.4 16.2 5.1 0 9.2-1.2 12.5-3.5V31c0 5.8-5.1 10.1-12.6 10.1-6.5 0-10.8-2.5-12.4-7.3l-9.1 3.8C199.8 46 207.4 51 218 51c14.1 0 22.7-8.4 22.7-20.7V10.4h-9v3.4C228.3 11.5 223.6 9 218.7 9c-7.4 0-12.8 4.2-12.8 10.3 0 6 4.9 9.8 13 9.8 4.4 0 8.2-1 10.8-2.9v2.3c0 5.3-3.9 8.7-10.4 8.7-6.2 0-9.7-2.6-10.8-7.4l-8.4 3.2C201.9 41.8 209 46 218 46c10.6 0 19.1-6.9 19.1-16.1V10.4h-9V14c-3.1-2.3-7.2-3.7-11.4-3.7zM286.9 10.3c6.7 0 11.6 2.7 15.7 8.7l7.7-5.5C305.5 5.7 296.9 0 286.5 0 268.2 0 255.3 12.6 255.3 30.7 255.3 48.6 268.3 61 286 61c10.5 0 18.9-5.1 23.9-14l-8-5.3c-4 6.3-8.4 9.1-15.4 9.1-11 0-19.2-8.9-19.2-20.5 0-12 8.1-20 19.6-20zM361.6 10.4h-10.6l-9.2 32.6h-.2l-10-32.6h-10.7L307.1 60h10.5l8.2-33.6h.2l9.6 33.6h7.9l9.8-33.8h.2L361 60h10.5z"/>
      <path d="M438 44.1c-3.2 5-7.1 7.2-12.6 7.2-11 0-19.3-8.9-19.3-20.5 0-12 8.1-20 19.6-20 7.1 0 12.9 3.6 16.5 10.2l8.2-5.3C446.2 6 439 0 426.6 0 408.8 0 396 12.6 396 30.7 396 48.9 409.1 61 427.4 61c11.2 0 19.3-5.1 24.4-14l-8.3-2.9zM471.5 0c-17.7 0-30.5 12.9-30.5 30.4C441 47.9 453.8 61 471.4 61c17.7 0 30.5-13 30.5-30.5C502 12.8 489.2 0 471.5 0zm0 9.5c11.8 0 20.6 9 20.6 21S483.3 51 471.4 51c-11.7 0-20.5-9.1-20.5-20.9C450.9 18.7 459.7 9.5 471.5 9.5zM525.7 10.3c6.7 0 11.6 2.7 15.7 8.7l7.7-5.5C544.3 5.7 535.6 0 525.3 0 507 0 494 12.6 494 30.7 494 48.6 507 61 524.7 61c10.5 0 18.9-5.1 23.9-14l-8-5.3c-4 6.3-8.4 9.1-15.4 9.1-11 0-19.2-8.9-19.2-20.5 0-12 8.1-20 19.6-20zM579.6 10.4V14c-3.3-2.4-7.6-3.7-12.4-3.7-13.3 0-23.5 10.9-23.5 25 0 13.8 10.3 25 23.3 25 4.8 0 9-1.4 12.6-4.2v3.6h9.7V10.4h-9.7zm-10.2 40.7c-8.4 0-14.3-6.5-14.3-15.6 0-9.2 5.9-15.7 14.5-15.7 8.6 0 14.1 6.3 14.1 15.7 0 9.5-5.7 15.6-14.3 15.6z"/>
    </g>
  </g>
</svg>
